# xmcd
#
# Track frame offsets:
#	150
#	11325
#	28433
#	45725
#	63611
#	79816
#	97272
#	115931
#	124944
#	139885
#	157816
#	178601
#	196110
#	211772
#	228190
#	237677
#	244354
#	259712
#	277078
#	294942
#	305990
#	324056
#
# Disc length: 4522 seconds
#
# Revision: 0
# Processed by: cddbd v1.5.2PL0 Copyright (c) Steve Scherf et al.
# Submitted via: EasyCDDAExtractor 2010.6.0.0
#
DISCID=4411a816
DTITLE=Soun Poul - Duty Rock
DYEAR=1900
DGENRE=
TTITLE0=Dutty Rock
TTITLE1=Dutty Rock
TTITLE2=Dutty Rock
TTITLE3=Dutty Rock
TTITLE4=Dutty Rock
TTITLE5=Dutty Rock
TTITLE6=Dutty Rock
TTITLE7=Dutty Rock
TTITLE8=Dutty Rock
TTITLE9=Dutty Rock
TTITLE10=Dutty Rock
TTITLE11=Dutty Rock
TTITLE12=Dutty Rock
TTITLE13=Dutty Rock
TTITLE14=Dutty Rock
TTITLE15=Dutty Rock
TTITLE16=Dutty Rock
TTITLE17=Dutty Rock
TTITLE18=Dutty Rock
TTITLE19=Dutty Rock
TTITLE20=Dutty Rock
TTITLE21=Dutty Rock
EXTD=
EXTT0=
EXTT1=
EXTT2=
EXTT3=
EXTT4=
EXTT5=
EXTT6=
EXTT7=
EXTT8=
EXTT9=
EXTT10=
EXTT11=
EXTT12=
EXTT13=
EXTT14=
EXTT15=
EXTT16=
EXTT17=
EXTT18=
EXTT19=
EXTT20=
EXTT21=
PLAYORDER=
